<svg xmlns="http://www.w3.org/2000/svg" width="54" height="54" viewBox="0 0 54 54">
    <g fill="none" fill-rule="evenodd">
        <g>
            <g>
                <g>
                    <path fill="#3b210c" d="M12.005 32.43l2.699 11.134c.39 1.61 2.012 2.599 3.622 2.208.562-.136 1.072-.431 1.47-.85l4.676-4.93-2.18-2.974L38.07 14.943c.642-.899.435-2.148-.464-2.79-.754-.54-1.779-.49-2.477.12L12.005 32.43z" transform="translate(-40 -36) translate(40 36) rotate(-6 49.19 2.355)"/>
                    <path fill="#a15a20" d="M4.869 28.179l5.659 3.607c1.062.677 2.433.619 3.434-.146l22.904-17.502c.878-.67 1.046-1.926.375-2.804-.55-.719-1.514-.98-2.351-.635L5.339 22.876c-1.532.63-2.262 2.384-1.631 3.916.235.57.64 1.055 1.161 1.387z" transform="translate(-40 -36) translate(40 36) rotate(-6 49.19 2.355)"/>
                    <path fill="#a15a20" d="M22.93 39.052l9.523 5.783c1.416.86 3.261.41 4.121-1.007.22-.363.362-.769.413-1.19l3.42-27.79c.203-1.645-.966-3.142-2.61-3.344-1.187-.146-2.347.426-2.953 1.456L21.9 34.967c-.831 1.414-.373 3.234 1.029 4.085z" transform="translate(-40 -36) translate(40 36) rotate(-6 49.19 2.355)"/>
                </g>
            </g>
        </g>
    </g>
</svg>