<svg xmlns="http://www.w3.org/2000/svg" width="180" height="50" viewBox="0 0 180 54">
    <g fill="none" fill-rule="evenodd">    <g>
      <g>
        <g>
          <path fill="#3b210c" d="M 12.005 32.43 L 14.704 43.564 C 15.094000000000001 45.174 16.716 46.163 18.326 45.772 C 18.888 45.635999999999996 19.398 45.341 19.796 44.922 L 24.472 39.992 L 22.292 37.018 L 38.07 14.943 C 38.712 14.044 38.505 12.795 37.606 12.152999999999999 C 36.852000000000004 11.613 35.827 11.662999999999998 35.129000000000005 12.272999999999998 L 12.005 32.43 Z" transform="translate(-40 -36) translate(40 36) rotate(-6 49.19 2.355)"/>
          <path fill="#a15a20" d="M 4.869 28.179 L 10.527999999999999 31.785999999999998 C 11.589999999999998 32.463 12.960999999999999 32.405 13.962 31.639999999999997 L 36.866 14.137999999999998 C 37.744 13.467999999999998 37.912 12.211999999999998 37.241 11.333999999999998 C 36.691 10.614999999999998 35.727 10.353999999999997 34.89 10.698999999999998 L 5.339 22.876 C 3.8070000000000004 23.506 3.0770000000000004 25.26 3.708 26.792 C 3.943 27.362000000000002 4.348 27.847 4.869 28.179000000000002 L 4.869 28.179 Z" transform="translate(-40 -36) translate(40 36) rotate(-6 49.19 2.355)"/>
          <path fill="#a15a20" d="M 22.93 39.052 L 32.453 44.835 C 33.869 45.695 35.714000000000006 45.245 36.574000000000005 43.828 C 36.794000000000004 43.465 36.93600000000001 43.059000000000005 36.987 42.638000000000005 L 40.407000000000004 14.848000000000006 C 40.61000000000001 13.203000000000007 39.441 11.706000000000007 37.797000000000004 11.504000000000007 C 36.61000000000001 11.358000000000006 35.45 11.930000000000007 34.844 12.960000000000006 L 21.9 34.967 C 21.069 36.381 21.526999999999997 38.201 22.929 39.052 L 22.93 39.052 Z" transform="translate(-40 -36) translate(40 36) rotate(-6 49.19 2.355)"/>
        </g>
        <path fill="#a15a20" fill-rule="nonzero" d="M 86.525 25.91 C 87.528 25.91 88.233 26.458 88.293 27.399 L 88.297 27.529 L 88.297 42.242 C 88.297 43.265 87.598 43.862 86.556 43.862 C 85.536 43.862 84.821 43.359 84.759 42.464 L 84.754 42.334 L 84.754 41.846000000000004 C 83.672 43.204 82.144 43.998 80.164 44.119 L 79.89 44.131 L 79.623 44.135 C 75.936 44.135 73.761 41.845 73.677 38.023 L 73.674 37.793 L 73.674 27.53 C 73.674 26.504 74.403 25.91 75.476 25.91 C 76.503 25.91 77.214 26.453 77.273 27.398 L 77.278 27.53 L 77.278 37.217 C 77.278 39.67 78.223 40.864 80.168 40.864 C 81.611 40.864 82.8 40.198 83.769 38.858 C 84.397 37.969 84.682 37.168 84.719 36.178 L 84.724 35.946 L 84.724 27.53 C 84.724 26.504 85.452 25.91 86.525 25.91 Z M 111.289 21.217 C 112.279 21.217 112.995 21.785 113.056 22.709 L 113.06 22.837 L 113.06 26.091 L 116.526 26.091 C 117.399 26.091 117.944 26.619 118.04 27.441 L 118.051 27.574 L 118.055 27.711 C 118.055 28.606 117.519 29.239 116.657 29.297 L 116.526 29.301 L 113.059 29.301 L 113.06 39.033 C 113.06 40.146 113.412 40.65 114.172 40.732 L 114.289 40.741 L 114.407 40.743 C 115.006 40.743 115.439 40.607 116.01 40.272 C 116.262 40.146 116.497 40.077 116.738 40.077 C 117.355 40.077 117.868 40.498 118.113 41.112 C 118.219 41.362 118.267 41.646 118.267 41.94 C 118.267 42.552 117.976 43.091 117.4 43.398 C 116.37 43.895 115.49 44.104 114.225 44.104 C 111.354 44.104 109.6 42.543 109.52 39.496 L 109.517 39.276 L 109.517 29.3 L 107.565 29.3 C 106.722 29.3 106.205 28.78 106.112 27.98 L 106.1 27.844 L 106.096 27.71 C 106.096 26.794 106.588 26.154 107.462 26.095 L 107.595 26.09 L 109.516 26.09 L 109.517 22.836 C 109.517 21.912 110.094 21.328 111.01 21.231 L 111.15 21.22 L 111.289 21.216 L 111.289 21.217 Z M 67.908 19.098 C 68.964 19.098 69.676 19.643 69.736 20.614 L 69.74 20.749 L 69.74 41.546 C 69.74 42.979 68.928 43.862 67.514 43.862 C 66.209 43.862 65.592 43.445 64.736 42.121 L 64.623 41.943 L 56.603 28.957 C 56.509 28.809 56.413 28.652 56.315 28.488 L 56.013 27.976 L 55.857 27.706 L 55.46 27.001 L 55.056 26.264 L 54.656 25.511 L 54.458 25.134 L 54.098 24.433 L 54.106 24.543 L 54.165 25.563 L 54.192 26.096 L 54.241 27.201 L 54.283 28.347 L 54.301 28.931 L 54.331 30.113 C 54.339 30.509 54.346 30.906 54.351 31.303 L 54.361 32.486 L 54.361 42.212 C 54.361 43.238 53.601 43.862 52.529 43.862 C 51.479 43.862 50.734 43.296 50.671 42.344 L 50.667 42.212 L 50.667 21.324 C 50.667 19.972 51.583 19.098 52.983 19.098 C 54.293 19.098 54.965 19.511 55.681 20.588 L 55.784 20.746 L 63.413 33.128 L 63.593 33.424 L 63.967 34.055 L 64.16 34.387 L 64.552 35.075 L 65.029 35.932 L 65.502 36.804 C 65.658 37.094 65.812 37.384 65.962 37.67 L 66.182 38.095 L 66.355 38.432 L 66.338 38.185 C 66.193 36.048 66.082 33.51 66.053 31.117 L 66.047 30.405 L 66.046 29.921 L 66.046 20.75 C 66.046 19.696 66.797 19.1 67.908 19.1 L 67.908 19.098 Z M 103.175 25.879 C 103.558 25.879 103.909 25.993 104.25 26.221 C 104.741 26.548000000000002 105.068 27.103 105.068 27.681 C 105.068 27.97 104.978 28.251 104.807 28.519 L 104.714 28.652 L 100.264 34.614 L 105.047 41.058 C 105.212 41.279 105.322 41.524 105.371 41.78 L 105.393 41.935 L 105.401 42.091 C 105.401 42.653 105.119 43.174 104.644 43.491 C 104.289 43.728 103.914 43.862 103.539 43.862 C 103.056 43.862 102.615 43.662 102.314 43.282 L 102.236 43.175 L 98.058 37.258 L 93.846 43.184 C 93.578 43.541 93.218 43.764 92.83 43.836 L 92.683 43.856 L 92.55 43.862 C 92.147 43.862 91.736 43.725 91.338 43.455 C 90.918 43.078 90.658 42.615 90.658 42.121 C 90.658 41.833 90.748 41.551 90.918 41.283 L 91.011 41.15 L 95.88 34.618 L 91.254 28.653 C 91.088 28.433 90.978 28.203 90.929 27.967 L 90.907 27.825 L 90.899 27.681 C 90.899 27.11 91.22 26.556 91.717 26.251 C 92.049 26.03 92.429 25.91 92.792 25.91 C 93.262 25.91 93.697 26.101 94.026 26.475 L 94.122 26.593 L 98.052 32 L 101.849 26.558 C 102.123 26.192 102.49 25.971 102.899 25.902 L 103.036 25.885 L 103.176 25.879 L 103.175 25.879 Z"/>
        <path fill="#3b210c" fill-rule="nonzero" d="M 150.704 25.668 C 154.426 25.668 156.568 27.904 156.65 31.748 L 156.653 31.98 L 156.653 42.242 C 156.653 43.262 155.904 43.862 154.851 43.862 C 153.824 43.862 153.113 43.319 153.054 42.374 L 153.049 42.242 L 153.049 32.555 C 153.049 30.115 152.12 28.938 150.159 28.938 C 148.881 28.938 147.654 29.861 146.462 31.508 C 145.802 32.405 145.52 33.157 145.486 34.138 L 145.482 34.353 L 145.482 42.243 C 145.482 43.263 144.758 43.863 143.711 43.863 C 142.665 43.863 141.971 43.325 141.913 42.374 L 141.909 42.242 L 141.909 27.5 C 141.909 26.493 142.649 25.91 143.741 25.91 C 144.731 25.91 145.417 26.45 145.478 27.367 L 145.482 27.5 L 145.482 27.742 L 145.605 27.602 C 146.685 26.414 148.181 25.782 150.143 25.682 L 150.427 25.672 L 150.704 25.669 L 150.704 25.668 Z M 171.138 19.28 C 175.709 19.28 178.418 21.535 178.418 25.41 C 178.418 27.85 177.555 29.535 175.762 30.574 L 175.567 30.684 L 175.42 30.758 L 175.528 30.798 C 177.832 31.681 179.089 33.528 179.224 36.237 L 179.234 36.493 L 179.236 36.733 C 179.236 41.019 176.44 43.588 171.73 43.678 L 171.47 43.681 L 163.993 43.681 C 161.671 43.681 160.588 42.607 160.529 40.239 L 160.527 40.032 L 160.527 22.96 C 160.527 20.491 161.542 19.345 163.797 19.284 L 163.993 19.281 L 171.138 19.281 L 171.138 19.28 Z M 130.996 19.28 C 135.568 19.28 138.277 21.535 138.277 25.41 C 138.277 27.85 137.413 29.535 135.621 30.574 L 135.425 30.684 L 135.278 30.758 L 135.386 30.798 C 137.691 31.681 138.948 33.528 139.082 36.237 L 139.092 36.493 L 139.094 36.733 C 139.094 41.019 136.299 43.588 131.588 43.678 L 131.329 43.681 L 123.852 43.681 C 121.529 43.681 120.446 42.607 120.388 40.239 L 120.385 40.032 L 120.385 22.96 C 120.385 20.491 121.4 19.345 123.655 19.284 L 123.852 19.281 L 130.996 19.281 L 130.996 19.28 Z M 171.077 32.54 L 164.159 32.54 L 164.16 39.76 C 164.16 40.18 164.274 40.329 164.633 40.348 L 164.72 40.35 L 171.138 40.35 C 173.97 40.35 175.421 39.017 175.421 36.46 C 175.421 33.93 174.037 32.61 171.301 32.543 L 171.077 32.54 Z M 130.936 32.54 L 124.018 32.54 L 124.018 39.76 C 124.018 40.18 124.132 40.329 124.491 40.348 L 124.578 40.35 L 130.996 40.35 C 133.829 40.35 135.279 39.017 135.279 36.46 C 135.279 33.93 133.895 32.61 131.16 32.543 L 130.936 32.54 Z M 170.926 22.61 L 164.629 22.61 C 164.329 22.61 164.185 22.744 164.163 23.075 L 164.16 23.17 L 164.16 29.24 L 170.986 29.24 C 173.288 29.24 174.615 28.048 174.691 25.966 L 174.694 25.774 C 174.694 23.656 173.47 22.611 170.926 22.611 L 170.926 22.61 Z M 130.784 22.61 L 124.487 22.61 C 124.187 22.61 124.043 22.744 124.022 23.075 L 124.019 23.17 L 124.018 29.24 L 130.845 29.24 C 133.146 29.24 134.473 28.048 134.549 25.966 L 134.553 25.774 C 134.553 23.656 133.329 22.611 130.784 22.611 L 130.784 22.61 Z"/>
      </g>
    </g>
  </g>
</svg>